<svg xmlns="http://www.w3.org/2000/svg" viewBox="0 0 44.003 74.999"><defs><style>.a{fill:#747474;}</style></defs><path class="a" d="M8348-13379a9.012,9.012,0,0,1-9-9v-57a9.009,9.009,0,0,1,9-9h26a9.01,9.01,0,0,1,9,9v57a9.012,9.012,0,0,1-9,9Zm-7-66v57a7.011,7.011,0,0,0,7,7h26a7.01,7.01,0,0,0,7-7v-57a7.008,7.008,0,0,0-7-7h-26A7.008,7.008,0,0,0,8341-13445Zm10.146,48.858a2.037,2.037,0,0,1-.787-.659l.324-.351a1.862,1.862,0,0,0,1.476.763,1.5,1.5,0,0,0,1.142-.432,1.728,1.728,0,0,0,.426-1.2v-.665a1.89,1.89,0,0,1-1.635.78,1.761,1.761,0,0,1-1.476-.733,3.178,3.178,0,0,1-.557-1.975v-.078a3.164,3.164,0,0,1,.55-1.965,1.766,1.766,0,0,1,1.493-.726,1.83,1.83,0,0,1,1.637.857l.031-.76h.547v5.176a2.229,2.229,0,0,1-.571,1.614,2.043,2.043,0,0,1-1.55.6A2.4,2.4,0,0,1,8351.147-13396.142Zm-.084-6.152a2.934,2.934,0,0,0-.412,1.705,2.748,2.748,0,0,0,.405,1.594,1.313,1.313,0,0,0,1.141.584,1.558,1.558,0,0,0,1.53-.966v-2.458a1.682,1.682,0,0,0-.591-.773,1.615,1.615,0,0,0-.929-.267A1.318,1.318,0,0,0,8351.063-13402.294Zm8.147,3.967a1.375,1.375,0,0,1-.473-1.076,1.411,1.411,0,0,1,.642-1.22,3.087,3.087,0,0,1,1.789-.449h1.061v-.6a1.169,1.169,0,0,0-.348-.892,1.453,1.453,0,0,0-1.021-.324,1.611,1.611,0,0,0-1.009.311.933.933,0,0,0-.4.753l-.584,0a1.356,1.356,0,0,1,.584-1.091,2.244,2.244,0,0,1,1.442-.462,2.075,2.075,0,0,1,1.395.441,1.594,1.594,0,0,1,.522,1.232v2.5a3.094,3.094,0,0,0,.162,1.148v.057h-.628a2.717,2.717,0,0,1-.107-.735,2.055,2.055,0,0,1-.787.617,2.38,2.38,0,0,1-1.006.217A1.778,1.778,0,0,1,8359.211-13398.327Zm.6-1.975a.955.955,0,0,0-.49.851.942.942,0,0,0,.328.736,1.242,1.242,0,0,0,.857.294,1.962,1.962,0,0,0,1.047-.284,1.69,1.69,0,0,0,.672-.756v-1.162h-1.047A2.6,2.6,0,0,0,8359.815-13400.3Zm11.348,2.3v-3.48a1.589,1.589,0,0,0-.3-1.051,1.248,1.248,0,0,0-.979-.341,1.545,1.545,0,0,0-1.064.409,1.444,1.444,0,0,0-.485.969v3.494h-.585v-3.524a1.452,1.452,0,0,0-.32-1.014,1.272,1.272,0,0,0-.969-.334,1.456,1.456,0,0,0-.946.317,1.834,1.834,0,0,0-.587.932v3.623h-.584v-5.28h.561l.02.857a1.962,1.962,0,0,1,.733-.716,2.021,2.021,0,0,1,.976-.239,1.482,1.482,0,0,1,1.587,1.026,1.943,1.943,0,0,1,.756-.76,2.085,2.085,0,0,1,1.047-.267q1.7,0,1.732,1.854v3.524Zm-15.322,0v-5.28h.574l.01.841a1.546,1.546,0,0,1,1.486-.938.937.937,0,0,1,.388.063l-.017.53a2.368,2.368,0,0,0-.4-.034,1.429,1.429,0,0,0-.925.3,1.674,1.674,0,0,0-.537.888v3.626Zm6.938-11.058a5.932,5.932,0,0,1-.959-3.6v-1.969a6.112,6.112,0,0,1,.919-3.681,3.273,3.273,0,0,1,2.8-1.226,3.287,3.287,0,0,1,2.782,1.2,5.891,5.891,0,0,1,.941,3.576v1.968a6.19,6.19,0,0,1-.918,3.7,3.243,3.243,0,0,1-2.793,1.246A3.28,3.28,0,0,1,8362.779-13409.061Zm1.395-8.242a4.443,4.443,0,0,0-.462,2.208v2.576a4.944,4.944,0,0,0,.445,2.378,1.5,1.5,0,0,0,1.4.779,1.461,1.461,0,0,0,1.351-.723,4.62,4.62,0,0,0,.463-2.262v-2.569a4.789,4.789,0,0,0-.438-2.347,1.49,1.49,0,0,0-1.388-.747A1.493,1.493,0,0,0,8364.174-13417.3Zm-8.164,9.3v-9.134l-2.789.952v-1.6l4.437-1.634h.243V-13408Zm2.546-29.187-1.763-5.508,4.684-3.508,4.548,3.508-1.766,5.508Zm2.492-3.448a.441.441,0,0,1,.175.037c.037.021.058.062.058.139v1.216a.3.3,0,0,1-.04.155.251.251,0,0,1-.192.061v.058h.587v-.058a.276.276,0,0,1-.216-.061.457.457,0,0,1-.041-.2v-1.154h.021l.646,1.429h.061l.628-1.489h.021v1.256c0,.077-.021.139-.062.155a.369.369,0,0,1-.175.04v.058h.841v-.058a.379.379,0,0,1-.176-.04.265.265,0,0,1-.041-.176v-1.154c0-.1,0-.159.041-.18a.442.442,0,0,1,.176-.037v-.061h-.646l-.489,1.179h-.021l-.51-1.179h-.645Zm-1.688,0a.878.878,0,0,1,.158.037.167.167,0,0,1,.078.159v1.235c0,.078-.021.136-.078.155-.04,0-.081.021-.158.021v.058h1.472l.1-.588h-.081a.79.79,0,0,1-.273.392.8.8,0,0,1-.393.1.36.36,0,0,1-.175-.021.152.152,0,0,1-.041-.115v-1.2c0-.1.021-.176.061-.2a.585.585,0,0,1,.217-.037v-.061h-.885Zm-1.155-1.961h.723l.727.591h3.94l.371-.591.51-.294v-.352h-5.331Z" transform="translate(-8339 13454)"/></svg>