<svg id="Layer_1" data-name="Layer 1" xmlns="http://www.w3.org/2000/svg" viewBox="0 0 128 70"><title>logo_purple</title><path d="M59.28,68.49,36.46,58.15c-3.64-1.65-4.77-2.54-2.28-6.71l1.08-1.95-4.55,2.2c-4.09,1.81-4.19,1.75-8.87,0L2.16,43.09c-2.06-1-2.82-2.43-1.52-5l6.58-12a9.13,9.13,0,0,1,3.43-2.57s-3.39,2.49,0,4l9.89,4.25c5.58,2.45,5.54,2.85,11.34,0l1-.48L28,29.21c-3.22-1.46-3.91-3.56-2.28-6.71l6-10.86a9.14,9.14,0,0,1,3.43-2.57s-3.4,2.49,0,4l15.09,6.53c5.58,2.45,5.54,2.85,11.34,0L95.9,3c2.48-1.17,1.63-3,1.63-3,.75,1.12,1.22,1.66,2.7,4l5.32,8.63c1.35,2.44.94,4.45-1,5.38L60.85,39.29c-4.31,2-5.2,2-9.84,0l-4.18-1.83a14.44,14.44,0,0,0-2.58.68c-.49.23-4.43,2.2-.07,4.2l14.31,6.43c5.58,2.45,5.62,2.85,11.43,0l47.64-23.53c2.48-1.17,1.63-3.05,1.63-3.05.75,1.12,1.22,1.66,2.7,4l5.32,8.63c1.35,2.44.94,4.45-1,5.38L69.15,68.49C67,69.5,65.69,70,64.34,70S61.6,69.5,59.28,68.49Z" style="fill:#673ab7"/></svg>